<?xml version="1.0" encoding="UTF-8" standalone="no"?>
<svg
   xmlns:dc="http://purl.org/dc/elements/1.1/"
   xmlns:cc="http://creativecommons.org/ns#"
   xmlns:rdf="http://www.w3.org/1999/02/22-rdf-syntax-ns#"
   xmlns:svg="http://www.w3.org/2000/svg"
   xmlns="http://www.w3.org/2000/svg"
   xmlns:xlink="http://www.w3.org/1999/xlink"
   xmlns:sodipodi="http://sodipodi.sourceforge.net/DTD/sodipodi-0.dtd"
   xmlns:inkscape="http://www.inkscape.org/namespaces/inkscape"
   width="17cm"
   height="12cm"
   viewBox="0 0 170 120"
   version="1.1"
   id="svg4636"
   sodipodi:docname="haskell-logo-xmpp.svg"
   inkscape:version="0.92.4 (5da689c313, 2019-01-14)">
  <metadata
     id="metadata4642">
    <rdf:RDF>
      <cc:Work
         rdf:about="">
        <dc:format>image/svg+xml</dc:format>
        <dc:type
           rdf:resource="http://purl.org/dc/dcmitype/StillImage" />
        <dc:title></dc:title>
      </cc:Work>
    </rdf:RDF>
  </metadata>
  <defs
     id="defs4640">
    <linearGradient
       id="SVGID_left_"
       y2="1.279e-13"
       gradientUnits="userSpaceOnUse"
       x2="-1073.2"
       gradientTransform="matrix(-0.26458333,0,0,0.26458333,-203.24126,129.62836)"
       y1="126.85"
       x1="-1073.2">
      <stop
         stop-color="#1b3967"
         offset=".011"
         id="stop4744" />
      <stop
         stop-color="#13b5ea"
         offset=".467"
         id="stop4746" />
      <stop
         stop-color="#002b5c"
         offset=".9945"
         id="stop4748" />
    </linearGradient>
    <linearGradient
       id="SVGID_right_"
       y2="1.279e-13"
       gradientUnits="userSpaceOnUse"
       x2="-1073.2"
       gradientTransform="matrix(0.26458333,0,0,0.26458333,376.56453,129.62863)"
       y1="126.85"
       x1="-1073.2">
      <stop
         stop-color="#1b3967"
         offset=".011"
         id="stop4737" />
      <stop
         stop-color="#13b5ea"
         offset=".467"
         id="stop4739" />
      <stop
         stop-color="#002b5c"
         offset=".9945"
         id="stop4741" />
    </linearGradient>
    <linearGradient
       inkscape:collect="always"
       xlink:href="#SVGID_right_"
       id="linearGradient5384"
       gradientUnits="userSpaceOnUse"
       gradientTransform="matrix(0.26458333,0,0,0.26458333,376.56453,129.62863)"
       x1="-1073.2"
       y1="126.85"
       x2="-1073.2"
       y2="1.279e-13" />
  </defs>
  <sodipodi:namedview
     pagecolor="#ffffff"
     bordercolor="#666666"
     borderopacity="1"
     objecttolerance="10"
     gridtolerance="10"
     guidetolerance="10"
     inkscape:pageopacity="0"
     inkscape:pageshadow="2"
     inkscape:window-width="1916"
     inkscape:window-height="2109"
     id="namedview4638"
     showgrid="false"
     inkscape:zoom="1.0349877"
     inkscape:cx="218.88071"
     inkscape:cy="206.53376"
     inkscape:window-x="1920"
     inkscape:window-y="18"
     inkscape:window-maximized="0"
     inkscape:current-layer="svg4636" />
  <g
     id="g5392">
    <g
       id="g4630"
       style="fill: rgb(102,102,102);">
      <path
         id="path4624"
         d="M 0 120 L 40 60 L 0 0 L 30 0 L 70 60 L 30 120" />
      <path
         id="path4626"
         d="M 136.666667 85 L 123.333333 65 L 170 65 L 170 85" />
      <path
         id="path4628"
         d="M 116.666667 55 L 103.333333 35 L 170 35 L 170 55" />
    </g>
    <g
       id="g4634"
       style="fill: rgb(153,153,153);">
      <path
         id="path4632"
         d="M 40 120 L 80 60 L 40 0 L 70 0 L 150 120 L 120 120 L 95 82.5 L 70 120" />
    </g>
  </g>
  <g
     id="g5382"
     transform="matrix(3.574616,0,0,3.574616,-222.6877,-464.13949)"
     style="opacity:0.633">
    <path
       id="path4751"
       style="fill:url(#linearGradient5384);stroke-width:0.26458332"
       d="m 100.12817,133.3828 c 0.0204,0.3474 -0.472814,0.25612 -0.472814,0.60669 0,10.19995 -12.318471,25.76142 -24.259113,28.76815 v 0.43365 c 15.862563,-1.4605 34.014827,-17.93875 34.414347,-33.5624 l -9.68348,3.75418 z"
       inkscape:connector-curvature="0" />
    <path
       id="path4753"
       style="fill:#e96d1f;stroke-width:0.26458332"
       d="m 95.330741,134.63772 c 0.02011,0.3474 0.03175,0.69586 0.03175,1.04696 0,10.19995 -8.122438,23.944 -20.062556,26.95046 v 0.43365 c 15.622059,-0.73819 27.995565,-16.6751 27.995565,-28.8925 0,-0.62839 -0.0339,-1.25122 -0.0982,-1.8669 l -7.866066,2.3278 z"
       inkscape:connector-curvature="0" />
    <path
       id="path4755"
       style="fill:#d9541e;stroke-width:0.26458332"
       d="m 103.273,132.16413 -2.01533,0.7202 c 0.0108,0.25453 0.0175,0.59637 0.0175,0.85328 0,10.90586 -9.86128,25.98314 -23.09071,28.34217 -0.858575,0.28786 -1.994431,0.54954 -2.892425,0.77549 v 0.43339 c 17.265122,-1.47108 29.395205,-19.01455 27.982335,-31.12559 z"
       inkscape:connector-curvature="0" />
    <path
       id="path4757"
       style="fill:url(#SVGID_left_);stroke-width:0.26458332"
       d="m 73.195139,133.38254 c -0.02037,0.3474 0.47281,0.25611 0.47281,0.60669 0,10.19995 12.318473,25.76142 24.259114,28.76815 v 0.43365 c -15.862562,-1.4605 -34.01483,-17.93875 -34.414351,-33.5624 l 9.683485,3.75417 z"
       inkscape:connector-curvature="0" />
    <path
       id="path4759"
       style="fill:#a0ce67;stroke-width:0.26458332"
       d="m 77.992564,134.63746 c -0.02011,0.34739 -0.03175,0.69585 -0.03175,1.04695 0,10.19995 8.122442,23.944 20.062557,26.95046 v 0.43366 c -15.622055,-0.73819 -27.995559,-16.67511 -27.995559,-28.89251 0,-0.62838 0.03387,-1.25121 0.09816,-1.8669 l 7.866063,2.32781 z"
       inkscape:connector-curvature="0" />
    <path
       id="path4761"
       style="fill:#439639;stroke-width:0.26458332"
       d="m 70.050301,132.16387 2.015332,0.72019 c -0.01085,0.25453 -0.01746,0.59637 -0.01746,0.85328 0,10.90586 9.861284,25.98315 23.090713,28.34217 0.858574,0.28787 1.994429,0.54954 2.892425,0.7755 v 0.43338 C 80.766191,161.81731 68.636104,144.27385 70.048978,132.16281 Z"
       inkscape:connector-curvature="0" />
  </g>
</svg>
